<?xml version="1.0" standalone="no"?>
<!DOCTYPE svg PUBLIC "-//W3C//DTD SVG 20010904//EN"
 "http://www.w3.org/TR/2001/REC-SVG-20010904/DTD/svg10.dtd">
<svg version="1.0" xmlns="http://www.w3.org/2000/svg"
 width="2400.000000pt" height="2400.000000pt" viewBox="0 0 2400.000000 2400.000000"
 preserveAspectRatio="xMidYMid meet">

<g transform="translate(0.000000,2400.000000) scale(0.100000,-0.100000)"
fill="#000000" stroke="none">
<path d="M11485 21913 c-1388 -1660 -2280 -4224 -2455 -7053 -27 -443 -39
-1134 -23 -1418 l6 -122 2577 0 2577 0 6 68 c4 37 10 240 13 452 20 1164 -99
2373 -342 3480 -411 1872 -1172 3497 -2163 4619 l-90 101 -106 -127z"/>
<path d="M22186 20595 c-380 -72 -715 -326 -890 -672 -139 -277 -164 -623 -65
-917 142 -425 486 -732 929 -828 114 -25 335 -29 450 -9 247 44 478 162 660
337 184 177 300 389 355 649 22 99 25 320 6 425 -88 498 -460 886 -961 1001
-117 27 -375 34 -484 14z m354 -205 c234 -29 426 -120 597 -283 183 -176 292
-401 311 -647 25 -306 -74 -583 -287 -803 -169 -175 -401 -285 -640 -305 -438
-37 -834 190 -1022 583 -78 162 -94 239 -94 440 0 146 3 182 23 255 27 101
104 263 161 340 229 306 587 464 951 420z"/>
<path d="M21900 19370 l0 -670 130 0 130 0 0 280 0 280 73 0 c88 0 137 -13
177 -46 35 -30 140 -174 269 -371 l93 -143 159 0 c88 0 159 2 159 5 0 7 -175
289 -230 370 -50 73 -123 150 -177 188 -18 12 -33 25 -33 28 0 4 20 10 44 13
65 10 158 60 204 110 54 59 81 113 90 186 25 176 -64 344 -212 399 -93 35
-172 41 -533 41 l-343 0 0 -670z m694 429 c55 -14 105 -63 113 -112 10 -64 -5
-127 -40 -158 -44 -40 -101 -49 -317 -49 l-190 0 0 165 0 165 196 0 c108 0
215 -5 238 -11z"/>
<path d="M355 17693 c3 -16 14 -111 25 -213 162 -1445 496 -2752 1027 -4017
l56 -133 3139 0 3139 0 -87 128 c-321 468 -676 894 -1089 1308 -340 341 -617
581 -998 868 -188 140 -588 409 -788 529 -1173 701 -2538 1197 -4160 1511
-129 25 -243 46 -252 46 -12 0 -15 -7 -12 -27z"/>
<path d="M22785 17674 c-2958 -501 -5206 -1713 -6859 -3697 -186 -223 -496
-630 -496 -650 0 -8 3847 -7 5340 2 l1055 6 67 150 c533 1202 892 2520 1094
4020 13 99 24 186 24 193 0 15 12 16 -225 -24z"/>
<path d="M1950 12043 c0 -14 105 -224 175 -353 121 -222 234 -411 368 -612
l130 -198 8988 0 8988 0 39 53 c207 279 481 742 616 1040 l35 77 -9669 0
c-5319 0 -9670 -3 -9670 -7z"/>
<path d="M3482 9670 c10 -28 160 -203 283 -329 161 -165 272 -260 617 -529
l247 -192 6953 0 6954 0 144 116 c193 156 306 252 480 408 158 143 530 513
530 527 0 5 -3286 9 -8106 9 -5123 0 -8104 -4 -8102 -10z"/>
<path d="M6114 7641 c3 -5 75 -49 158 -98 817 -479 1687 -841 2758 -1148 366
-104 1211 -307 1225 -293 5 4 -172 1512 -180 1536 -3 9 -410 12 -1985 12
-1159 0 -1979 -4 -1976 -9z"/>
<path d="M10470 7643 c0 -3 40 -83 88 -177 234 -455 570 -943 963 -1404 l88
-102 52 62 c287 344 589 828 884 1418 l105 210 -1090 0 c-599 0 -1090 -3
-1090 -7z"/>
<path d="M13105 7618 c-14 -60 -232 -1424 -228 -1428 11 -12 756 148 1138 245
1129 288 2106 667 2970 1154 l90 51 -1982 0 -1983 0 -5 -22z"/>
<path d="M17076 4995 c-128 -33 -253 -122 -330 -236 -86 -128 -111 -317 -60
-467 31 -93 53 -131 119 -201 214 -230 571 -236 790 -15 213 215 213 555 -1
768 -65 66 -146 114 -234 140 -80 24 -213 29 -284 11z m304 -113 c110 -44 218
-150 261 -259 20 -48 23 -76 23 -168 0 -132 -18 -189 -91 -280 -177 -217 -487
-233 -685 -34 -244 243 -139 644 197 755 61 21 226 13 295 -14z"/>
<path d="M16980 4455 l0 -295 60 0 60 0 0 126 0 127 48 -6 c56 -8 78 -30 162
-160 l55 -86 73 0 c56 -1 71 2 66 12 -62 102 -138 209 -158 223 -34 22 -33 30
6 38 42 8 104 74 112 120 8 44 -7 104 -36 141 -38 48 -71 55 -268 55 l-180 0
0 -295z m338 179 c16 -11 22 -25 22 -53 0 -61 -22 -73 -140 -79 l-100 -5 0 77
0 76 98 0 c72 0 103 -4 120 -16z"/>
<path d="M9428 4146 l-3 -424 -93 59 c-105 65 -210 109 -340 141 -129 32 -331
30 -463 -5 -568 -149 -880 -744 -675 -1288 86 -230 263 -427 481 -536 238
-119 534 -135 773 -43 84 32 212 108 280 166 l42 37 0 -117 0 -116 225 0 225
0 0 1275 0 1275 -225 0 -225 0 -2 -424z m-506 -607 c154 -32 312 -154 388
-299 70 -135 86 -264 50 -404 -51 -200 -196 -353 -400 -422 -87 -30 -263 -26
-352 8 -201 76 -341 234 -383 433 -19 88 -18 142 0 230 45 213 213 393 421
450 61 16 205 19 276 4z"/>
<path d="M10120 4335 l0 -235 238 2 237 3 3 233 2 232 -240 0 -240 0 0 -235z"/>
<path d="M12352 4146 c2 -281 0 -422 -7 -418 -5 3 -35 23 -65 43 -78 53 -209
113 -315 146 -83 25 -104 27 -270 27 -159 1 -189 -2 -259 -22 -343 -99 -605
-363 -698 -703 -20 -71 -23 -108 -23 -244 0 -192 18 -274 95 -430 150 -304
435 -504 775 -545 118 -14 214 -7 342 25 113 29 263 105 355 180 l67 54 3
-117 3 -117 220 0 220 0 3 1273 2 1272 -226 0 -226 0 4 -424z m-452 -622 c332
-110 492 -484 340 -796 -100 -205 -299 -331 -525 -332 -372 -1 -655 353 -570
713 44 186 198 354 380 416 119 41 250 40 375 -1z"/>
<path d="M6364 4006 c-211 -40 -355 -116 -505 -265 -142 -141 -240 -322 -281
-521 -26 -126 -21 -374 11 -491 45 -165 119 -302 229 -420 129 -138 272 -231
437 -282 218 -68 424 -62 657 19 123 43 166 64 212 105 l35 30 3 -83 3 -83
225 4 c124 2 226 4 226 5 1 0 -1 439 -4 974 l-5 972 -223 0 -224 0 0 -92 0
-91 -60 57 c-70 67 -146 104 -287 142 -121 32 -335 42 -449 20z m331 -441
c279 -59 484 -326 462 -604 -21 -259 -209 -473 -467 -527 -184 -39 -386 22
-521 157 -173 173 -217 449 -107 670 48 97 154 201 252 250 133 65 249 82 381
54z"/>
<path d="M13726 4005 c-191 -40 -319 -109 -469 -254 -197 -190 -307 -458 -307
-746 0 -294 105 -542 313 -742 190 -183 418 -273 690 -273 140 0 233 17 372
70 124 46 155 62 200 101 l35 31 0 -86 0 -86 225 0 225 0 0 798 c0 440 -3 881
-7 981 l-6 181 -221 -2 -220 -3 3 -87 c1 -49 -1 -88 -5 -88 -4 0 -31 23 -60
50 -62 59 -164 110 -279 141 -105 28 -384 36 -489 14z m379 -437 c98 -20 194
-75 276 -157 117 -118 169 -240 169 -401 0 -167 -52 -293 -170 -411 -117 -118
-242 -170 -405 -170 -95 0 -156 13 -240 51 -209 95 -344 303 -345 531 0 78 33
200 76 277 48 86 144 179 230 224 135 71 258 88 409 56z"/>
<path d="M15805 3990 c-55 -5 -131 -16 -169 -24 -204 -48 -381 -220 -441 -430
-14 -46 -16 -88 -13 -195 4 -157 10 -173 115 -293 120 -139 189 -172 484 -228
467 -90 528 -115 549 -230 16 -87 -26 -155 -124 -201 -83 -40 -155 -52 -264
-47 -79 5 -101 10 -159 39 -79 39 -116 85 -169 207 l-33 77 -231 3 -230 2 0
-33 c0 -82 54 -230 122 -334 143 -220 344 -321 668 -340 58 -3 155 0 215 6
379 39 578 176 667 461 34 110 32 275 -4 378 -52 144 -133 235 -272 302 -109
52 -191 73 -451 114 -365 58 -439 93 -437 203 1 87 76 171 172 192 174 38 297
17 390 -66 49 -44 110 -144 110 -180 0 -10 53 -13 230 -13 l230 0 0 25 c0 79
-57 229 -119 313 -68 92 -307 240 -446 277 -74 19 -257 26 -390 15z"/>
<path d="M10120 2995 l0 -975 235 0 235 0 0 975 0 975 -235 0 -235 0 0 -975z"/>
</g>
</svg>
