<?xml version="1.0" encoding="UTF-8"?>
<!DOCTYPE svg PUBLIC "-//W3C//DTD SVG 1.1//EN" "http://www.w3.org/Graphics/SVG/1.1/DTD/svg11.dtd">
<svg xmlns="http://www.w3.org/2000/svg" version="1.1" width="1514px" height="512px" style="shape-rendering:geometricPrecision; text-rendering:geometricPrecision; image-rendering:optimizeQuality; fill-rule:evenodd; clip-rule:evenodd" xmlns:xlink="http://www.w3.org/1999/xlink">
<g><path style="opacity:0.996" fill="#3c3c69" d="M 532.5,-0.5 C 540.5,-0.5 548.5,-0.5 556.5,-0.5C 589.838,7.34449 608.671,28.3445 613,62.5C 613.667,191.167 613.667,319.833 613,448.5C 608.671,482.656 589.838,503.656 556.5,511.5C 548.5,511.5 540.5,511.5 532.5,511.5C 504.466,504.635 486.299,487.302 478,459.5C 476.843,391.53 476.343,323.53 476.5,255.5C 476.343,187.47 476.843,119.47 478,51.5C 486.299,23.6985 504.466,6.36514 532.5,-0.5 Z"/></g>
<g><path style="opacity:0.995" fill="#3c3c69" d="M 727.5,-0.5 C 735.5,-0.5 743.5,-0.5 751.5,-0.5C 781.82,6.31995 800.32,24.9866 807,55.5C 807.333,149.167 807.667,242.833 808,336.5C 809.304,350.799 816.804,359.965 830.5,364C 880.167,364.667 929.833,364.667 979.5,364C 984.892,362.47 989.892,360.137 994.5,357C 1057.46,248.915 1120.29,140.749 1183,32.5C 1209.94,1.23946 1242.78,-6.9272 1281.5,8C 1292.54,13.4517 1302.04,20.9517 1310,30.5C 1376.44,140.37 1442.1,250.703 1507,361.5C 1509.66,369.163 1511.83,376.829 1513.5,384.5C 1513.5,394.167 1513.5,403.833 1513.5,413.5C 1505.38,456.463 1480.38,484.629 1438.5,498C 1432.25,499.517 1425.91,500.517 1419.5,501C 1346.17,501.667 1272.83,501.667 1199.5,501C 1168.55,496.049 1150.05,478.216 1144,447.5C 1142.01,409.968 1159.18,386.468 1195.5,377C 1244.17,376.667 1292.83,376.333 1341.5,376C 1349.7,372.671 1351.53,367.171 1347,359.5C 1314,304.167 1281,248.833 1248,193.5C 1193.5,288.494 1138.5,383.161 1083,477.5C 1070.32,491.591 1054.48,499.424 1035.5,501C 945.167,501.667 854.833,501.667 764.5,501C 712.587,494.087 681.754,464.92 672,413.5C 671.333,294.5 671.333,175.5 672,56.5C 678.233,25.4351 696.733,6.43506 727.5,-0.5 Z"/></g>
<g><path style="opacity:0.995" fill="#cb383b" d="M -0.5,93.5 C -0.5,85.5 -0.5,77.5 -0.5,69.5C 7.21803,38.9502 26.5514,20.4502 57.5,14C 167.833,13.3333 278.167,13.3333 388.5,14C 424.886,22.0989 444.22,44.7656 446.5,82C 444.759,113.741 429.092,135.407 399.5,147C 393.925,148.515 388.258,149.515 382.5,150C 273.144,150.983 163.811,150.65 54.5,149C 24.5399,141.874 6.20661,123.374 -0.5,93.5 Z"/></g>
<g><path style="opacity:0.994" fill="#3c3c69" d="M 82.5,511.5 C 76.8333,511.5 71.1667,511.5 65.5,511.5C 42.874,507.932 25.7073,496.265 14,476.5C 10.6721,470.183 8.33876,463.516 7,456.5C 5.35762,399.198 5.02429,341.865 6,284.5C 10.4767,244.348 30.9767,215.848 67.5,199C 73.9718,196.382 80.6385,194.382 87.5,193C 133.639,191.851 179.806,191.351 226,191.5C 269.833,191.667 313.667,191.833 357.5,192C 385.818,197.564 404.318,214.064 413,241.5C 419.16,269.685 411.66,293.519 390.5,313C 381.302,320.097 370.969,324.764 359.5,327C 294.191,328.305 228.857,328.972 163.5,329C 152.904,332.596 146.071,339.762 143,350.5C 142.667,384.167 142.333,417.833 142,451.5C 135.987,485.346 116.154,505.346 82.5,511.5 Z"/></g>
</svg>
