<?xml version="1.0" encoding="UTF-8"?>
<!DOCTYPE svg PUBLIC "-//W3C//DTD SVG 1.1//EN" "http://www.w3.org/Graphics/SVG/1.1/DTD/svg11.dtd">
<svg xmlns="http://www.w3.org/2000/svg" version="1.1" width="1024px" height="534px" style="shape-rendering:geometricPrecision; text-rendering:geometricPrecision; image-rendering:optimizeQuality; fill-rule:evenodd; clip-rule:evenodd" xmlns:xlink="http://www.w3.org/1999/xlink">
<g><path style="opacity:0.999" fill="#030303" d="M 242.5,-0.5 C 265.833,-0.5 289.167,-0.5 312.5,-0.5C 310.401,38.1816 308.068,76.8483 305.5,115.5C 304.378,117.288 304.211,119.288 305,121.5C 305.791,120.255 306.291,118.922 306.5,117.5C 320.972,78.0844 335.638,38.7511 350.5,-0.5C 372.5,-0.5 394.5,-0.5 416.5,-0.5C 416.579,2.27065 416.079,4.93731 415,7.5C 381,97.5 347,187.5 313,277.5C 289.241,278.494 265.408,278.828 241.5,278.5C 243.668,240.822 246.001,203.156 248.5,165.5C 249.201,162.437 249.868,159.27 250.5,156C 250.167,155.833 249.833,155.667 249.5,155.5C 248.705,157.495 248.039,159.495 247.5,161.5C 233.727,200.379 219.393,239.045 204.5,277.5C 182.327,277.831 160.327,277.497 138.5,276.5C 172.388,183.83 207.055,91.4966 242.5,-0.5 Z"/></g>
<g><path style="opacity:0.999" fill="#030303" d="M 424.5,-0.5 C 446.5,-0.5 468.5,-0.5 490.5,-0.5C 490.611,0.117425 490.944,0.617425 491.5,1C 456.353,92.935 421.686,185.102 387.5,277.5C 365.141,278.156 343.141,277.489 321.5,275.5C 355.427,183.391 389.76,91.3905 424.5,-0.5 Z"/></g>
<g><path style="opacity:0.999" fill="#020202" d="M 501.5,-0.5 C 523.833,-0.5 546.167,-0.5 568.5,-0.5C 559.062,25.6589 549.562,51.6589 540,77.5C 561.747,51.6535 583.247,25.6535 604.5,-0.5C 671.5,-0.5 738.5,-0.5 805.5,-0.5C 800.233,15.6341 794.566,31.6341 788.5,47.5C 766.157,47.167 743.823,47.5003 721.5,48.5C 714.688,66.9401 707.688,85.2734 700.5,103.5C 699.957,103.56 699.624,103.893 699.5,104.5C 720.489,105.5 741.489,105.833 762.5,105.5C 756.854,122.952 750.52,140.119 743.5,157C 722.26,157.173 701.094,157.673 680,158.5C 672.099,180.05 663.933,201.383 655.5,222.5C 654.957,222.56 654.624,222.893 654.5,223.5C 679.825,224.5 705.158,224.833 730.5,224.5C 730.5,225.5 730.5,226.5 730.5,227.5C 729.039,232.55 727.372,237.55 725.5,242.5C 726.167,242.833 726.833,243.167 727.5,243.5C 810.767,220.85 894.1,198.517 977.5,176.5C 981.553,175.987 985.553,175.154 989.5,174C 990.056,173.617 990.389,173.117 990.5,172.5C 1001.28,169.053 1012.28,166.72 1023.5,165.5C 1023.5,166.833 1023.5,168.167 1023.5,169.5C 780.508,275.982 536.841,381.482 292.5,486C 262.637,498.844 232.304,510.511 201.5,521C 182.676,526.627 163.676,530.793 144.5,533.5C 132.167,533.5 119.833,533.5 107.5,533.5C 72.2589,529.296 42.4256,514.296 18,488.5C 8.02542,475.724 1.85875,461.39 -0.5,445.5C -0.5,435.167 -0.5,424.833 -0.5,414.5C 6.54464,376.214 20.0446,340.214 40,306.5C 64.5597,265.116 92.393,226.116 123.5,189.5C 124.496,189.586 125.329,189.252 126,188.5C 126.483,189.448 126.649,190.448 126.5,191.5C 118.121,210.471 111.621,230.138 107,250.5C 100.246,281.172 104.912,309.839 121,336.5C 135.304,354.399 153.471,366.399 175.5,372.5C 177.438,374.163 179.772,374.829 182.5,374.5C 192.269,375.983 202.102,376.983 212,377.5C 222.548,376.881 233.048,375.881 243.5,374.5C 246.228,374.829 248.562,374.163 250.5,372.5C 365.737,341.191 481.07,310.191 596.5,279.5C 597.167,279.5 597.5,279.167 597.5,278.5C 600.167,278.167 600.167,277.833 597.5,277.5C 568.5,277.5 539.5,277.5 510.5,277.5C 509.891,262.174 509.558,246.841 509.5,231.5C 509.826,223.316 509.492,215.316 508.5,207.5C 508.242,193.827 507.742,180.16 507,166.5C 492.817,203.526 478.651,240.526 464.5,277.5C 442.327,277.831 420.327,277.497 398.5,276.5C 432.235,183.964 466.568,91.6307 501.5,-0.5 Z M 667.5,10.5 C 668.043,10.56 668.376,10.8933 668.5,11.5C 638,92.5 607.5,173.5 577,254.5C 574.949,207.84 573.616,161.174 573,114.5C 605.104,80.2362 636.604,45.5696 667.5,10.5 Z"/></g>
<g><path style="opacity:0.436" fill="#282828" d="M 700.5,103.5 C 721.736,104.156 742.403,104.822 762.5,105.5C 741.489,105.833 720.489,105.5 699.5,104.5C 699.624,103.893 699.957,103.56 700.5,103.5 Z"/></g>
<g><path style="opacity:0.039" fill="#555555" d="M 305.5,115.5 C 305.328,116.492 305.662,117.158 306.5,117.5C 306.291,118.922 305.791,120.255 305,121.5C 304.211,119.288 304.378,117.288 305.5,115.5 Z"/></g>
<g><path style="opacity:0.102" fill="#484848" d="M 248.5,165.5 C 248.768,163.901 248.434,162.568 247.5,161.5C 248.039,159.495 248.705,157.495 249.5,155.5C 249.833,155.667 250.167,155.833 250.5,156C 249.868,159.27 249.201,162.437 248.5,165.5 Z"/></g>
<g><path style="opacity:0.606" fill="#323232" d="M 990.5,172.5 C 990.389,173.117 990.056,173.617 989.5,174C 985.553,175.154 981.553,175.987 977.5,176.5C 981.594,174.721 985.927,173.388 990.5,172.5 Z"/></g>
<g><path style="opacity:0.761" fill="#3e3e3e" d="M 126.5,191.5 C 126.649,190.448 126.483,189.448 126,188.5C 125.329,189.252 124.496,189.586 123.5,189.5C 132.381,178.715 133.381,179.381 126.5,191.5 Z"/></g>
<g><path style="opacity:0.071" fill="#535353" d="M 508.5,207.5 C 509.492,215.316 509.826,223.316 509.5,231.5C 508.818,224.099 508.152,216.599 507.5,209C 508.056,208.617 508.389,208.117 508.5,207.5 Z"/></g>
<g><path style="opacity:0.675" fill="#1b1b1b" d="M 655.5,222.5 C 680.661,223.498 705.995,223.831 731.5,223.5C 731.768,225.099 731.434,226.432 730.5,227.5C 730.5,226.5 730.5,225.5 730.5,224.5C 705.158,224.833 679.825,224.5 654.5,223.5C 654.624,222.893 654.957,222.56 655.5,222.5 Z"/></g>
<g><path style="opacity:0.059" fill="#676767" d="M 138.5,276.5 C 160.327,277.497 182.327,277.831 204.5,277.5C 182.33,278.828 159.996,278.828 137.5,277.5C 137.624,276.893 137.957,276.56 138.5,276.5 Z"/></g>
<g><path style="opacity:0.059" fill="#656565" d="M 321.5,275.5 C 343.141,277.489 365.141,278.156 387.5,277.5C 365.34,278.497 343.006,278.831 320.5,278.5C 320.263,277.209 320.596,276.209 321.5,275.5 Z"/></g>
<g><path style="opacity:0.058" fill="#656565" d="M 398.5,276.5 C 420.327,277.497 442.327,277.831 464.5,277.5C 442.33,278.828 419.996,278.828 397.5,277.5C 397.624,276.893 397.957,276.56 398.5,276.5 Z"/></g>
<g><path style="opacity:0.02" fill="#9b9b9b" d="M 510.5,277.5 C 539.5,277.5 568.5,277.5 597.5,277.5C 597.5,277.833 597.5,278.167 597.5,278.5C 597.5,279.167 597.167,279.5 596.5,279.5C 567.833,278.833 539.167,278.167 510.5,277.5 Z"/></g>
<g><path style="opacity:0.494" fill="#474747" d="M 175.5,372.5 C 178.067,372.721 180.401,373.388 182.5,374.5C 179.772,374.829 177.438,374.163 175.5,372.5 Z"/></g>
<g><path style="opacity:0.51" fill="#414141" d="M 250.5,372.5 C 248.562,374.163 246.228,374.829 243.5,374.5C 245.599,373.388 247.933,372.721 250.5,372.5 Z"/></g>
</svg>
